nColumns=28
nRows=41
DataType=double
version=3
OpenSimVersion=4.1
endheader
time	ground_force_1_vx	ground_force_1_vy	ground_force_1_vz	ground_force_1_px	ground_force_1_py	ground_force_1_pz	ground_force_1_mx	ground_force_1_my	ground_force_1_mz	ground_force_2_vx	ground_force_2_vy	ground_force_2_vz	ground_force_2_px	ground_force_2_py	ground_force_2_pz	ground_force_2_mx	ground_force_2_my	ground_force_2_mz	ground_force_3_vx	ground_force_3_vy	ground_force_3_vz	ground_force_3_px	ground_force_3_py	ground_force_3_pz	ground_force_3_mx	ground_force_3_my	ground_force_3_mz
1.24	-166.828	208.804	-72.9079	-0.145702	0.006	-0.432689	0	0.903595	0	-86.2059	79.8274	20.2122	-0.149963	0.006	-0.783999	0	-0.215803	0	0	0	0	0.00210505	0	-2.58989e-05	0	0	0
1.25	-281.99	862.01	-133.119	-0.203849	0.006	-0.455532	0	1.28746	0	-238.547	367.838	54.7368	-0.202441	0.006	-0.77286	0	-0.470921	0	0	0	0	0.00210505	0	-2.58989e-05	0	0	0
1.26	-124.063	1530.57	-37.3886	-0.232453	0.006	-0.470008	0	-4.69256	0	-141.841	744.506	38.674	-0.254303	0.006	-0.756559	0	2.20798	0	0	0	0	0.00210505	0	-2.58989e-05	0	0	0
1.27	-141.795	1306.21	21.246	-0.228489	0.006	-0.474247	0	-7.56257	0	-14.0727	994.96	-12.8088	-0.27642	0.006	-0.748895	0	6.55185	0	0	0	0	0.00210505	0	-2.58989e-05	0	0	0
1.28	-253.752	703.775	-26.6108	-0.195763	0.006	-0.4689	0	-4.97614	0	-79.6405	718.677	5.77695	-0.262621	0.006	-0.749526	0	6.48964	0	0	0	0	0.00210505	0	-2.58989e-05	0	0	0
1.29	-300.265	438.467	-54.3861	-0.154847	0.006	-0.459795	0	-2.38111	0	-186.056	446.507	50.7287	-0.222331	0.006	-0.756601	0	2.89327	0	0	0	0	0.00210505	0	-2.58989e-05	0	0	0
1.3	-281.565	424.625	-41.0989	-0.154489	0.006	-0.461627	0	-2.45362	0	-219.718	373.889	57.9211	-0.198389	0.006	-0.759469	0	1.02969	0	0	0	0	0.00210505	0	-2.58989e-05	0	0	0
1.31	-218.336	546.98	-16.9103	-0.181873	0.006	-0.468709	0	-3.41424	0	-204.674	377.097	40.8001	-0.19993	0.006	-0.755371	0	2.10085	0	0	0	0	0.00210505	0	-2.58989e-05	0	0	0
1.32	-132.402	690.378	-6.24943	-0.205	0.006	-0.472145	0	-4.09921	0	-162.599	423.599	21.4378	-0.215554	0.006	-0.750489	0	4.0027	0	0	0	0	0.00210505	0	-2.58989e-05	0	0	0
1.33	-75.7125	720.263	-6.68321	-0.215139	0.006	-0.472276	0	-4.31693	0	-103.642	497.79	11.337	-0.235012	0.006	-0.74772	0	5.0983	0	0	0	0	0.00210505	0	-2.58989e-05	0	0	0
1.34	-45.7769	681.413	-7.4193	-0.219662	0.006	-0.471394	0	-4.5308	0	-64.0288	551.787	17.1449	-0.246117	0.006	-0.747623	0	5.24191	0	0	0	0	0.00210505	0	-2.58989e-05	0	0	0
1.35	-24.2834	613.496	-8.70669	-0.222187	0.006	-0.469937	0	-5.1825	0	-61.6972	562.785	25.4278	-0.247494	0.006	-0.748587	0	5.19406	0	0	0	0	0.00210505	0	-2.58989e-05	0	0	0
1.36	-20.5572	517.776	-6.48186	-0.220695	0.006	-0.468119	0	-5.9187	0	-73.4564	530.175	28.4074	-0.242818	0.006	-0.749618	0	5.39381	0	0	0	0	0.00210505	0	-2.58989e-05	0	0	0
1.37	-28.2676	426.532	-5.78129	-0.215051	0.006	-0.465159	0	-6.15273	0	-79.9314	476.289	28.8975	-0.235321	0.006	-0.750797	0	5.64442	0	0	0	0	0.00210505	0	-2.58989e-05	0	0	0
1.38	-31.499	369.398	-11.2856	-0.208343	0.006	-0.461277	0	-5.5381	0	-84.1217	424.991	28.0293	-0.225958	0.006	-0.752199	0	5.73158	0	0	0	0	0.00210505	0	-2.58989e-05	0	0	0
1.39	-30.3708	352.35	-17.8007	-0.202496	0.006	-0.458229	0	-4.56034	0	-87.1585	390.833	25.1774	-0.217023	0.006	-0.753126	0	5.73536	0	0	0	0	0.00210505	0	-2.58989e-05	0	0	0
1.4	-28.3246	352.686	-17.3174	-0.197041	0.006	-0.457072	0	-3.94464	0	-87.0208	374.781	21.8552	-0.210212	0.006	-0.753471	0	5.70628	0	0	0	0	0.00210505	0	-2.58989e-05	0	0	0
1.41	-30.0437	361.482	-10.0554	-0.191669	0.006	-0.458099	0	-4.05657	0	-85.0315	369.526	19.1551	-0.205082	0.006	-0.75359	0	5.72856	0	0	0	0	0.00210505	0	-2.58989e-05	0	0	0
1.42	-34.9695	385.56	-1.91833	-0.188091	0.006	-0.460223	0	-4.59825	0	-82.9322	372.742	15.7574	-0.202255	0.006	-0.753243	0	5.99322	0	0	0	0	0.00210505	0	-2.58989e-05	0	0	0
1.43	-37.8527	413.781	1.87866	-0.18563	0.006	-0.461816	0	-4.87523	0	-77.4221	387.027	10.2895	-0.202701	0.006	-0.752326	0	6.62715	0	0	0	0	0.00210505	0	-2.58989e-05	0	0	0
1.44	-40.0007	427.587	0.797655	-0.182331	0.006	-0.461974	0	-4.72896	0	-65.2722	413.76	5.82499	-0.206609	0.006	-0.751506	0	7.23446	0	0	0	0	0.00210505	0	-2.58989e-05	0	0	0
1.45	-43.978	422.571	-1.05945	-0.177978	0.006	-0.461545	0	-4.39664	0	-49.6359	445.067	6.12142	-0.211946	0.006	-0.75123	0	7.35585	0	0	0	0	0.00210505	0	-2.58989e-05	0	0	0
1.46	-47.2985	416.683	-0.465877	-0.17459	0.006	-0.461489	0	-4.14327	0	-37.664	464.985	8.97211	-0.215473	0.006	-0.751368	0	7.20293	0	0	0	0	0.00210505	0	-2.58989e-05	0	0	0
1.47	-45.4155	427.715	0.751765	-0.174523	0.006	-0.461973	0	-3.85862	0	-34.0997	465.629	10.1048	-0.215638	0.006	-0.75157	0	7.14747	0	0	0	0	0.00210505	0	-2.58989e-05	0	0	0
1.48	-37.8741	448.712	-0.457286	-0.177	0.006	-0.462243	0	-3.28682	0	-36.6953	453.692	9.82621	-0.213469	0.006	-0.751797	0	7.21166	0	0	0	0	0.00210505	0	-2.58989e-05	0	0	0
1.49	-30.3003	462.568	-2.73293	-0.179534	0.006	-0.462114	0	-2.63609	0	-39.6521	442.548	9.92941	-0.211425	0.006	-0.751918	0	7.29407	0	0	0	0	0.00210505	0	-2.58989e-05	0	0	0
1.5	-24.5684	464.438	-2.72918	-0.181298	0.006	-0.462087	0	-2.25462	0	-38.7816	439.811	10.3773	-0.211098	0.006	-0.751908	0	7.31759	0	0	0	0	0.00210505	0	-2.58989e-05	0	0	0
1.51	-18.9671	459.384	-0.17256	-0.182673	0.006	-0.462524	0	-2.14905	0	-33.8455	443.885	10.2225	-0.212408	0.006	-0.751754	0	7.32594	0	0	0	0	0.00210505	0	-2.58989e-05	0	0	0
1.52	-14.1471	452.089	1.82814	-0.183294	0.006	-0.462883	0	-2.11059	0	-27.5362	451.159	9.53211	-0.214023	0.006	-0.751615	0	7.4066	0	0	0	0	0.00210505	0	-2.58989e-05	0	0	0
1.53	-12.4288	445.977	2.44246	-0.182554	0.006	-0.463007	0	-2.10235	0	-22.5241	458.945	9.14362	-0.215057	0.006	-0.751683	0	7.65529	0	0	0	0	0.00210505	0	-2.58989e-05	0	0	0
1.54	-13.3237	445.295	4.18665	-0.181298	0.006	-0.463707	0	-2.27591	0	-19.4123	465.592	9.07428	-0.215244	0.006	-0.752086	0	8.06485	0	0	0	0	0.00210505	0	-2.58989e-05	0	0	0
1.55	-11.6885	454.55	7.77188	-0.180767	0.006	-0.465006	0	-2.64427	0	-16.9126	473.588	9.11786	-0.214571	0.006	-0.752644	0	8.51354	0	0	0	0	0.00210505	0	-2.58989e-05	0	0	0
1.56	-6.17734	473.545	9.88239	-0.180259	0.006	-0.465964	0	-3.01492	0	-14.8489	482.9	9.73143	-0.212806	0.006	-0.753372	0	8.79641	0	0	0	0	0.00210505	0	-2.58989e-05	0	0	0
1.57	-4.18317	491.863	9.60442	-0.177881	0.006	-0.466171	0	-3.23788	0	-14.9197	488.777	10.8968	-0.209792	0.006	-0.754299	0	8.85867	0	0	0	0	0.00210505	0	-2.58989e-05	0	0	0
1.58	-7.18441	503.448	8.54986	-0.173604	0.006	-0.465794	0	-3.34291	0	-16.9274	489.998	11.6661	-0.205835	0.006	-0.755139	0	8.838	0	0	0	0	0.00210505	0	-2.58989e-05	0	0	0
1.59	-11.9353	510.794	6.86432	-0.16846	0.006	-0.465337	0	-3.34508	0	-19.4767	488.772	11.8885	-0.20155	0.006	-0.755446	0	8.8292	0	0	0	0	0.00210505	0	-2.58989e-05	0	0	0
1.6	-17.3319	514.541	5.03136	-0.163221	0.006	-0.465015	0	-3.2317	0	-21.4571	485.98	11.547	-0.197711	0.006	-0.755328	0	8.82191	0	0	0	0	0.00210505	0	-2.58989e-05	0	0	0
1.61	-23.0368	513.609	3.8436	-0.158183	0.006	-0.464828	0	-3.04883	0	-22.1852	482.334	9.41814	-0.194296	0.006	-0.75488	0	8.87764	0	0	0	0	0.00210505	0	-2.58989e-05	0	0	0
1.62	-28.0739	510.206	2.59223	-0.153857	0.006	-0.464312	0	-2.80201	0	-20.9231	479.358	5.24408	-0.191467	0.006	-0.753979	0	8.97355	0	0	0	0	0.00210505	0	-2.58989e-05	0	0	0
1.63	-31.0762	504.308	1.18495	-0.150419	0.006	-0.463851	0	-2.51772	0	-18.2475	477.362	1.43837	-0.189035	0.006	-0.752834	0	8.94568	0	0	0	0	0.00210505	0	-2.58989e-05	0	0	0
1.64	-31.0299	497.434	-0.0753462	-0.147875	0.006	-0.463337	0	-2.30165	0	-15.1891	475.174	0.399958	-0.187086	0.006	-0.752171	0	8.68486	0	0	0	0	0.00210505	0	-2.58989e-05	0	0	0
